SplineFontDB: 3.0
FontName: StamAshkenazCLM
FullName: Stam Ashkenaz CLM
FamilyName: Stam Ashkenaz CLM
Weight: Medium
Copyright: Created by Yoram Gnat with FontForge (http://fontforge.sf.net)\n\nCopyright .2007-2010 by Yoram Gnat\n(yoram.gnat@gmail.com). Distributed under the terms of GNU General Public License version 2(http://www.gnu.org/licenses/gpl.html).\n\n\nAs a special exception, if you create a document which uses this font, and embed this font or unaltered portions of this font into the document, this font does not by itself cause the resulting document to be covered by the GNU General Public License. This exception does not however invalidate any other reasons why the document might be covered by the GNU General Public License. If you modify this font, you may extend this exception to your version of the font, but you are not obligated to do so. If you do not wish to do so, delete this exception statement from your version. 
UComments: "19/12/2009 upper dot (UNI05C4) added, sof-pasuq removed, maqaf changed to space as suggested by Owen Leibman. " 
Version: 0.110
ItalicAngle: 0
UnderlinePosition: -100
UnderlineWidth: 100
Ascent: 1638
Descent: 410
LayerCount: 2
Layer: 0 0 "Back"  1
Layer: 1 0 "Fore"  0
XUID: 021 152 2123407394 10142070]
FSType: 0
OS2Version: 0
OS2_WeightWidthSlopeOnly: 0
OS2_UseTypoMetrics: 0
CreationTime: 1159709374
ModificationTime: 1286635792
OS2TypoAscent: 0
OS2TypoAOffset: 1
OS2TypoDescent: 0
OS2TypoDOffset: 1
OS2TypoLinegap: 184
OS2WinAscent: 0
OS2WinAOffset: 1
OS2WinDescent: 0
OS2WinDOffset: 1
HheadAscent: 0
HheadAOffset: 1
HheadDescent: 0
HheadDOffset: 1
OS2Vendor: 'PfEd'
Lookup: 260 1 0 "'mark' Mark Positioning in Hebrew lookup 0"  {"'mark' Mark Positioning in Hebrew lookup 0-1"  } ['mark' ('hebr' <'dflt' > ) ]
MarkAttachClasses: 1
DEI: 91125
ShortTable: cvt  2
  33
  633
EndShort
GaspTable: 3 8 0 16 1 65535 3
Encoding: UnicodeBmp
Compacted: 1
UnicodeInterp: none
NameList: Adobe Glyph List
DisplaySize: -48
AntiAlias: 1
FitToEm: 1

StartChar: afii57664
Encoding: 1488 1488 1
Width: 1158
VWidth: 1314
Flags: W
TeX: 82 0
HStem: 0 347<960.804 1107.19>
AnchorPoint: "puncta" 493 0 basechar 0
LayerCount: 2
Fore
SplineSet
72 1149 m 1
 277 983 502 860 698 622 c 1
 742 633 828 659 828 702 c 1
 828 707 826 712 824 718 c 1
 771 826 611 860 592 876 c 1
 670 956 789 1014 789 1135 c 0
 789 1152 787 1170 782 1190 c 1
 902 1007 1076 937 1076 839 c 0
 1076 829 1074 819 1070 808 c 1
 1051 682 908 629 768 566 c 1
 879 459 901 388 1034 350 c 1
 1039 348 1043 347 1047 347 c 0
 1076 347 1101 389 1129 414 c 1
 1117 341 1113 257 1113 174 c 1
 1113 132 1116 85 1127 32 c 1
 1115 5 1088 0 1052 0 c 1
 761 101 597 380 354 610 c 9
 288 356 l 17
 412 322 543 314 596 188 c 1
 608 159 613 131 613 103 c 0
 613 3 549 -89 504 -158 c 9
 485 -108 484 -76 456 -30 c 24
 445 -11 427 -12 408 0 c 25
 102 0 l 25
 256 682 l 25
 102 777 l 17
 107 807 109 836 109 866 c 0
 109 960 86 1055 72 1149 c 1
EndSplineSet
Validated: 1
EndChar

StartChar: afii57665
Encoding: 1489 1489 2
Width: 1193
VWidth: 1308
Flags: W
TeX: 82 0
HStem: 0 350<121 954> 700 351<143 182 219 954> 1390 20G<184 215.5>
VStem: 143 905<701.784 1046.88> 143 113<1265.53 1408.11> 182 37<1051 1278.03> 954 94<350 700>
AnchorPoint: "puncta" 580 0 basechar 0
LayerCount: 2
Fore
SplineSet
182 1051 m 1xe4
 182 1265 l 1xe4
 160 1275 143 1303 143 1336 c 0
 143 1377 168 1410 200 1410 c 0
 231 1410 256 1377 256 1336 c 0xe8
 256 1304 241 1276 219 1265 c 1
 219 1051 l 1xe4
 1022 1051 l 1
 1106 1105 l 1
 1084 1065 1057 1035 1048 970 c 9xf0
 1048 350 l 17
 1106 362 1116 381 1144 398 c 9
 1161 400 l 17
 1152 379 1144 359 1144 332 c 1
 1136 259 1132 201 1132 147 c 0
 1132 96 1135 49 1144 0 c 9
 91 0 l 17
 119 44 121 92 121 147 c 0
 121 159 121 172 121 185 c 0
 121 235 99 293 86 350 c 9
 954 350 l 25
 954 700 l 25xe2
 136 700 l 17
 140 738 143 780 143 816 c 0xf0
 143 916 128 971 97 1051 c 1
 182 1051 l 1xe4
EndSplineSet
Validated: 1
EndChar

StartChar: afii57666
Encoding: 1490 1490 3
Width: 704
VWidth: 1290
Flags: W
TeX: 82 0
HStem: 3 324<120.87 379.889> 700 350<229 250 279.938 380 455 520.707 548 558> 1388 20G<387 418.5>
VStem: 92 319<41.8421 266.697> 171 114<1198.57 1341.62> 229 329<702.438 1046.95> 346 113<1264.48 1406.16> 385 37<1050 1277.3> 506 114<1190.48 1332.06>
AnchorPoint: "puncta" 373 50 basechar 0
LayerCount: 2
Fore
SplineSet
548 1050 m 1xe180
 570 1050 l 1
 560 1004 558 958 558 916 c 0xe4
 558 841 565 769 565 700 c 9
 455 700 l 25
 667 160 l 25
 601 -60 l 25
 506 255 l 17
 501 269 489 274 483 274 c 0
 481 274 480 274 479 273 c 1
 441 273 411 228 411 153 c 1
 411 80 379 3 289 3 c 9
 37 3 l 17
 70 119 92 258 92 385 c 1xf080
 158 352 242 327 329 327 c 0
 374 327 420 334 464 350 c 9
 380 700 l 25
 217 700 l 17
 225 752 229 805 229 856 c 0xe4
 229 920 223 985 210 1050 c 1
 250 1050 l 1
 210 1198 l 1
 187 1208 171 1236 171 1270 c 0xe8
 171 1310 198 1344 229 1344 c 0xe4
 260 1344 285 1310 285 1270 c 0
 285 1238 269 1210 248 1198 c 1
 247 1198 247 1196 247 1194 c 0
 247 1170 281 1082 302 1050 c 1
 385 1050 l 1
 385 1264 l 1xe9
 363 1274 346 1302 346 1334 c 0
 346 1376 371 1408 403 1408 c 0
 434 1408 459 1376 459 1334 c 0xe2
 459 1302 444 1274 422 1264 c 1
 422 1050 l 9
 501 1050 l 17
 533 1112 534 1146 545 1188 c 1
 522 1198 506 1226 506 1260 c 0
 506 1300 532 1334 563 1334 c 0
 594 1334 620 1300 620 1260 c 0
 620 1228 604 1200 583 1190 c 1
 548 1050 l 1xe180
EndSplineSet
Validated: 1
EndChar

StartChar: afii57668
Encoding: 1492 1492 4
Width: 1222
VWidth: 1324
Flags: W
TeX: 82 0
HStem: 0 352<206 390> 700 349<256 886 1015 1144> 1389 20G<221 252.5>
VStem: 95 295<29.2224 348.223> 180 113<1264.53 1407.11> 219 37<1050 1277.03>
AnchorPoint: "puncta" 584 0 basechar 0
LayerCount: 2
Fore
SplineSet
256 1049 m 1xe4
 1144 1049 l 9
 1144 700 l 25
 1015 700 l 17
 1079 542 1195 433 1195 248 c 1
 1195 157 1093 46 985 -24 c 9
 886 700 l 25
 95 700 l 17xf0
 105 778 114 859 114 944 c 0
 114 1000 111 1059 102 1119 c 1
 135 1075 174 1055 219 1050 c 1
 219 1264 l 1xe4
 197 1274 180 1302 180 1335 c 0
 180 1376 205 1409 237 1409 c 0
 268 1409 293 1376 293 1335 c 0xe8
 293 1303 278 1275 256 1264 c 1
 256 1049 l 1xe4
206 530 m 9
 206 352 l 25
 403 352 l 17
 395 305 390 258 390 211 c 0
 390 141 399 70 416 0 c 9
 194 0 l 17
 109 15 95 104 95 206 c 1
 95 404 137 448 206 530 c 9
EndSplineSet
Validated: 1
EndChar

StartChar: afii57667
Encoding: 1491 1491 5
Width: 1215
VWidth: 1324
Flags: W
TeX: 82 0
HStem: 700 350<120.715 220 258 844 972 1106.12> 1389 20G<222 254>
VStem: 90 14<1108.65 1149.16> 104 1032<703.658 1049.9> 182 112<1264.53 1407.5> 220 38<1050 1277.95>
AnchorPoint: "puncta" 613 0 basechar 0
LayerCount: 2
Fore
SplineSet
258 1050 m 9xe4
 1088 1050 l 17
 1105 1063 1120 1172 1130 1172 c 1
 1131 1172 1132 1171 1132 1169 c 0
 1132 1162 1139 1112 1139 1066 c 0
 1139 1051 1138 1036 1136 1023 c 9xe0
 1136 700 l 25xe0
 972 700 l 17
 1036 542 1150 421 1150 236 c 1
 1150 145 1058 50 950 -20 c 9
 844 700 l 25
 86 700 l 17
 96 778 104 859 104 943 c 0
 104 1000 99 1092 90 1152 c 1
 114 1075 170 1050 220 1050 c 1
 220 1264 l 1xe4
 198 1274 182 1302 182 1335 c 0
 182 1376 206 1409 238 1409 c 0
 270 1409 294 1376 294 1335 c 0xe8
 294 1303 280 1275 258 1264 c 1
 258 1050 l 9xe4
EndSplineSet
Validated: 1
EndChar

StartChar: afii57669
Encoding: 1493 1493 6
Width: 497
VWidth: 1232
Flags: W
TeX: 82 0
VStem: 103 333<702.284 1044.1> 307 133<141.016 699> 307 90<103.21 549.502>
AnchorPoint: "puncta" 246 0 basechar 0
LayerCount: 2
Fore
SplineSet
89 1151 m 1x80
 113 1112 139 1076 181 1050 c 9
 369 1050 l 17
 407 1050 436 1023 436 952 c 1x80
 436 793 440 711 440 557 c 24x40
 440 396 434 303 397 147 c 17
 381 83 346 24 307 0 c 9x20
 307 699 l 25x40
 86 699 l 17
 98 769 103 843 103 920 c 0
 103 994 98 1071 89 1151 c 1x80
EndSplineSet
Validated: 1
EndChar

StartChar: afii57670
Encoding: 1494 1494 7
Width: 550
VWidth: 1290
Flags: W
TeX: 82 0
HStem: 701 349<107 122 153.917 240 303 392.707 422 437> 1390 20G<259 290.5>
VStem: 43 114<1200.48 1342.16> 107 330<703.952 1047.47> 201 142<88.6399 695.806> 218 113<1264.57 1408.06> 257 37<1050 1277.35> 378 114<1190.57 1332.16>
AnchorPoint: "puncta" 268 0 basechar 0
LayerCount: 2
Fore
SplineSet
422 1050 m 1xc3
 448 1050 l 1
 448 1050 437 942 437 885 c 0xd0
 437 825 440 764 447 701 c 9
 303 701 l 17
 333 590 343 492 343 394 c 0
 343 254 313 125 272 0 c 1
 231 125 201 254 201 394 c 0xc8
 201 492 211 590 240 701 c 9
 97 701 l 17
 104 764 107 824 107 884 c 0xd0
 107 941 104 996 97 1050 c 1
 122 1050 l 1
 82 1200 l 1
 59 1210 43 1238 43 1270 c 0
 43 1312 69 1344 100 1344 c 0
 131 1344 157 1312 157 1270 c 0
 157 1238 143 1210 122 1200 c 1
 121 1198 119 1196 119 1194 c 0
 119 1172 156 1084 176 1050 c 1
 257 1050 l 1
 257 1264 l 1xe2
 235 1274 218 1302 218 1336 c 0
 218 1376 243 1410 275 1410 c 0
 306 1410 331 1376 331 1336 c 0xc4
 331 1304 316 1276 294 1264 c 1
 294 1050 l 9
 373 1050 l 17
 405 1112 406 1146 417 1190 c 1
 394 1200 378 1228 378 1260 c 0
 378 1302 404 1334 435 1334 c 0
 466 1334 492 1302 492 1260 c 0
 492 1228 476 1202 455 1190 c 1
 422 1050 l 1xc3
EndSplineSet
Validated: 1
EndChar

StartChar: afii57671
Encoding: 1495 1495 8
Width: 1188
VWidth: 1290
Flags: W
TeX: 82 0
HStem: 700 350<143.886 231 294 377 849 931 994 1128.23>
VStem: 98 330<702.952 918.976> 192 142<88.5009 694.807> 788 350<700 919> 891 143<94.6094 694.807>
AnchorPoint: "puncta" 596 4 basechar 0
LayerCount: 2
Fore
SplineSet
792 919 m 1x90
 616 1102 l 1
 433 919 l 1
 433 919 428 886 428 884 c 1xd0
 428 825 431 763 438 700 c 9
 294 700 l 17
 324 589 334 492 334 393 c 0
 334 253 304 125 263 0 c 1
 222 125 192 253 192 393 c 0xa0
 192 492 202 589 231 700 c 9
 88 700 l 17
 95 763 98 824 98 883 c 0
 98 940 98 996 91 1049 c 1
 91 1206 l 1
 100 1155 152 1072 181 1050 c 1
 377 1050 l 9
 617 1264 l 25
 849 1050 l 1
 1043 1050 l 1
 1105 1050 1139 1014 1139 958 c 1
 1139 925 1138 706 1138 706 c 0
 1138 700 l 9xd0
 994 700 l 17
 1024 589 1034 492 1034 394 c 0
 1034 254 1004 125 963 0 c 1
 922 125 891 254 891 394 c 0x88
 891 492 902 589 931 700 c 9
 788 700 l 17
 788 763 798 824 798 884 c 1
 792 919 l 1x90
EndSplineSet
Validated: 1
EndChar

StartChar: afii57672
Encoding: 1496 1496 9
Width: 1192
VWidth: 1290
Flags: W
TeX: 82 0
HStem: 0 358<326 973.405> 758 294<696.529 931.225> 1380 20G<261 292.5>
VStem: 45 114<1190.53 1333.11> 109 330<701 1047.47> 121 50<1051 1101.64> 230 96<358 699 1255.53 1399.79> 259 37<1051 1268.03> 380 114<1181.53 1323.11> 1022 118<406.903 769.153>
AnchorPoint: "puncta" 632 0 basechar 0
LayerCount: 2
Fore
SplineSet
449 1050 m 1xe5c0
 449 1050 439 942 439 885 c 0xe840
 439 825 448 764 448 701 c 9
 326 701 l 17
 326 358 l 9
 912 358 l 17
 993 405 1022 444 1022 532 c 1
 1022 664 926 758 798 758 c 1
 686 758 650 646 586 556 c 9
 586 796 l 17
 586 976 667 1052 854 1052 c 1
 1104 1052 1140 868 1140 670 c 1
 1140 391 1081 260 998 74 c 1
 978 35 932 13 880 0 c 9
 230 0 l 17
 230 699 l 9xe240
 99 699 l 17
 99 762 109 825 109 884 c 0xe840
 109 941 105 996 99 1050 c 1
 121 1050 l 0xe440
 84 1190 l 1
 61 1200 45 1228 45 1261 c 0
 45 1302 71 1335 102 1335 c 0
 133 1335 159 1302 159 1261 c 0xf040
 159 1229 142 1201 121 1190 c 1
 120 1189 121 1187 121 1185 c 0
 121 1164 150 1088 171 1051 c 1
 259 1051 l 1
 259 1255 l 1
 237 1265 220 1293 220 1326 c 0
 220 1367 245 1400 277 1400 c 0
 308 1400 333 1367 333 1326 c 0
 333 1294 318 1266 296 1255 c 1
 296 1050 l 0
 380 1050 l 0
 407 1106 409 1139 419 1180 c 1
 396 1190 380 1218 380 1251 c 0
 380 1292 406 1325 437 1325 c 0
 468 1325 494 1292 494 1251 c 0
 494 1219 478 1192 457 1181 c 1
 426 1050 l 0
 449 1050 l 1xe5c0
EndSplineSet
Validated: 1
EndChar

StartChar: afii57673
Encoding: 1497 1497 10
Width: 492
VWidth: 1408
Flags: W
TeX: 82 0
HStem: 700 350<130.552 340.988>
VStem: 61 27<1148.61 1193> 128 323<701.122 1020.93> 341 110<597.984 895>
AnchorPoint: "puncta" 243 0 basechar 0
LayerCount: 2
Fore
SplineSet
262 393 m 1xe0
 299 491 341 543 341 656 c 1xd0
 341 678 325 700 303 700 c 1
 181 700 l 1
 150 700 118 634 93 595 c 1
 115 700 l 1
 124 747 128 792 128 839 c 0
 128 909 119 981 102 1050 c 1
 61 1197 l 1
 88 1193 l 1
 101 1139 127 1074 156 1050 c 1
 352 1050 l 1
 437 1035 451 946 451 844 c 1
 451 613 346 447 262 393 c 1xe0
EndSplineSet
Validated: 1
EndChar

StartChar: afii57674
Encoding: 1498 1498 11
Width: 1083
VWidth: 963
Flags: W
TeX: 82 0
HStem: 700 350<101 792.226>
VStem: 101 910<703.237 993.353>
AnchorPoint: "puncta" 464 0 basechar 0
LayerCount: 2
Fore
SplineSet
90 1050 m 9
 843 1050 l 17
 986 1050 1011 920 1011 830 c 9
 1011 -826 l 17
 877 -522 888 92 826 550 c 1
 806 610 821 683 703 700 c 9
 79 700 l 17
 92 769 101 841 101 912 c 0
 101 957 98 1003 90 1050 c 9
EndSplineSet
Validated: 1
EndChar

StartChar: afii57675
Encoding: 1499 1499 12
Width: 1175
VWidth: 1206
Flags: W
TeX: 82 0
HStem: 0 350<148 901.933> 700 350<147 906.393>
VStem: 1013 106<407.072 635.761>
AnchorPoint: "puncta" 539 0 basechar 0
LayerCount: 2
Fore
SplineSet
103 1050 m 9
 777 1050 l 17
 890 1050 1119 892 1119 700 c 9
 1119 348 l 17
 1119 158 877 0 781 0 c 9
 55 0 l 17
 117 89 148 186 148 291 c 0
 148 310 145 330 145 350 c 9
 859 350 l 17
 935 360 1013 420 1013 522 c 1
 1013 631 928 679 859 700 c 9
 115 700 l 17
 133 749 147 800 147 860 c 0
 147 915 135 977 103 1050 c 9
EndSplineSet
Validated: 1
EndChar

StartChar: afii57676
Encoding: 1500 1500 13
Width: 1165
VWidth: 1206
Flags: W
TeX: 82 0
HStem: 0 351<483 897.933> 701 350<182.763 902.836>
VStem: -136 60<1966.7 2138.02> 1009 106<407.722 636.761>
AnchorPoint: "puncta" 542 0 basechar 0
LayerCount: 2
Fore
SplineSet
188 1051 m 1
 773 1051 l 1
 887 1051 1115 893 1115 701 c 9
 1115 349 l 17
 1115 159 873 0 777 0 c 9
 390 0 l 17
 451 89 483 186 483 291 c 0
 483 310 480 331 480 351 c 9
 855 351 l 17
 932 360 1009 421 1009 523 c 1
 1009 632 925 680 855 701 c 9
 111 701 l 17
 129 750 144 801 144 860 c 0
 144 915 133 1029 105 1113 c 1
 -51 1609 l 1
 -234 1609 l 1
 -279 1486 l 1
 -267 1556 -255 1753 -255 1830 c 0
 -255 1904 -282 2012 -300 2092 c 1
 -276 2051 -241 1966 -159 1966 c 1
 -142 1981 -136 1998 -136 2021 c 0
 -136 2063 -157 2127 -180 2252 c 1
 -174 2253 -169 2254 -164 2254 c 0
 -153 2254 -143 2250 -136 2244 c 1
 -117 2188 -76 2046 -76 1962 c 1
 -38 1962 29 1954 53 1876 c 1
 83 1705 100 1628 122 1468 c 16
 151 1254 165 1256 188 1051 c 1
EndSplineSet
Validated: 1
EndChar

StartChar: afii57677
Encoding: 1501 1501 14
Width: 1200
VWidth: 1206
Flags: W
TeX: 82 0
HStem: 0 350<313 1002> 700 350<110 217 313 983.81>
VStem: 217 96<350 700> 1002 130<350 678.745>
AnchorPoint: "puncta" 589 0 basechar 0
LayerCount: 2
Fore
SplineSet
814 700 m 1
 654 700 422 700 313 700 c 9
 313 350 l 25
 1002 350 l 17
 1002 590 l 1
 1002 688 936 700 814 700 c 1
81 1050 m 25
 962 1050 l 18
 1042 1050 1096 983 1118 931 c 9
 1132 838 l 17
 1132 0 l 9
 217 0 l 25
 217 700 l 25
 81 700 l 25
 93 776 110 818 110 894 c 24
 110 956 93 989 81 1050 c 25
EndSplineSet
Validated: 1
EndChar

StartChar: afii57678
Encoding: 1502 1502 15
Width: 1244
VWidth: 1206
Flags: W
TeX: 82 0
HStem: 0 350<478 1070> 700 350<551 963.836> 700 107<452.568 549.109>
VStem: 151 306<842.516 980.029> 478 698<85.7812 349.062> 1070 106<350 635.761>
AnchorPoint: "puncta" 634 0 basechar 0
LayerCount: 2
Fore
SplineSet
1070 522 m 1xb4
 1070 631 986 679 916 700 c 9xd4
 430 700 l 17
 423 642 420 601 403 527 c 8
 367 370 334 285 290 130 c 17
 262 70 205 -15 162 -32 c 9
 297 689 l 25
 79 728 l 17
 103 794 121 866 134 943 c 0
 147 1016 151 1006 151 1086 c 1
 199 1070 187 1073 234 1057 c 9
 370 1010 l 17
 425 985 457 927 457 875 c 0
 457 864 455 853 452 842 c 1
 464 819 483 807 501 807 c 0xb4
 523 807 544 824 551 860 c 1
 551 915 539 977 507 1050 c 9
 834 1050 l 17xd4
 948 1050 1176 892 1176 700 c 9
 1176 0 l 25xb4
 384 0 l 17
 446 89 478 186 478 291 c 0xb8
 478 310 477 330 474 350 c 9
 1070 350 l 25
 1070 350 1070 489 1070 522 c 1xb4
EndSplineSet
Validated: 1
EndChar

StartChar: afii57679
Encoding: 1503 1503 16
Width: 550
VWidth: 1290
Flags: W
TeX: 82 0
HStem: 700 350<108 126 155.938 241 304 396.707 425 438> 1388 20G<263 294.5>
VStem: 47 114<1198.57 1342.06> 108 330<702.952 1047.47> 202 142<-68.7366 694.807> 222 113<1264.48 1406.16> 261 37<1050 1277.3> 382 114<1190.48 1332.06>
AnchorPoint: "puncta" 273 0 basechar 0
LayerCount: 2
Fore
SplineSet
126 1050 m 1xd0
 86 1198 l 1
 63 1208 47 1236 47 1270 c 0
 47 1310 73 1344 104 1344 c 0
 135 1344 161 1310 161 1270 c 0
 161 1238 145 1210 124 1198 c 1
 123 1198 123 1196 123 1194 c 0
 123 1170 157 1082 178 1050 c 1
 261 1050 l 1
 261 1264 l 1xe2
 239 1274 222 1302 222 1334 c 0
 222 1376 247 1408 279 1408 c 0
 310 1408 335 1376 335 1334 c 0xc4
 335 1302 320 1274 298 1264 c 1
 298 1050 l 9
 377 1050 l 17
 409 1112 410 1146 421 1188 c 1
 398 1198 382 1226 382 1260 c 0
 382 1300 408 1334 439 1334 c 0
 470 1334 496 1300 496 1260 c 0xc3
 496 1228 480 1200 459 1190 c 1
 425 1050 l 1
 449 1050 l 1
 449 1050 438 942 438 885 c 0xd0
 438 825 441 763 448 700 c 9
 304 700 l 17
 334 589 344 492 344 394 c 0
 344 254 312 -575 271 -700 c 1
 230 -575 202 254 202 394 c 0xc8
 202 492 212 589 241 700 c 9
 98 700 l 17
 105 763 108 824 108 884 c 0
 108 941 105 996 98 1050 c 1
 126 1050 l 1xd0
EndSplineSet
Validated: 1
EndChar

StartChar: afii57680
Encoding: 1504 1504 17
Width: 679
VWidth: 1303
Flags: W
TeX: 82 0
HStem: 0 350<144.357 410> 1388 20G<352 383.5>
VStem: 136 114<1198.48 1341.11> 215 303<703.026 1046.69> 311 113<1263.53 1406.11> 350 37<1051 1276.03> 471 114<1189.53 1331.11>
AnchorPoint: "puncta" 356 0 basechar 0
LayerCount: 2
Fore
SplineSet
515 1050 m 1xc6
 540 1050 l 9
 531 979 518 939 518 867 c 24xd0
 518 801 531 765 539 700 c 25
 429 700 l 25
 496 556 523 469 602 331 c 16
 625 291 639 238 639 186 c 0
 639 128 622 72 587 36 c 8
 567 16 549 14 524 0 c 17
 20 0 l 9
 55 66 84 99 111 169 c 24
 137 237 137 279 153 350 c 25
 410 350 l 25
 398 412 390 446 380 508 c 24
 368 583 361 625 350 700 c 25xc4
 194 700 l 25
 202 765 215 801 215 867 c 24
 215 939 202 979 193 1050 c 17
 215 1050 l 1xd0
 175 1198 l 1
 152 1208 136 1236 136 1269 c 0
 136 1310 162 1343 193 1343 c 0
 224 1343 250 1310 250 1269 c 0xe0
 250 1237 236 1209 215 1198 c 1xd0
 214 1197 212 1195 212 1193 c 0
 212 1170 246 1083 267 1050 c 1
 350 1050 l 1
 350 1263 l 1xc4
 328 1273 311 1301 311 1334 c 0
 311 1375 336 1408 368 1408 c 0
 399 1408 424 1375 424 1334 c 0xc8
 424 1302 409 1274 387 1263 c 1
 387 1051 l 9
 466 1051 l 17
 498 1113 499 1145 510 1188 c 1
 487 1198 471 1226 471 1259 c 0
 471 1300 497 1333 528 1333 c 0
 559 1333 585 1300 585 1259 c 0
 585 1227 569 1200 548 1189 c 1
 515 1050 l 1xc6
EndSplineSet
Validated: 1
EndChar

StartChar: afii57681
Encoding: 1505 1505 18
Width: 1180
VWidth: 1206
Flags: W
TeX: 82 0
HStem: 0 330<423.645 816.732> 700 350<101 179 319 952.035>
VStem: 179 140<429.929 700> 971 162<453.357 850>
AnchorPoint: "puncta" 577 0 basechar 0
LayerCount: 2
Fore
SplineSet
319 700 m 17
 319 690 319 680 319 671 c 0
 319 498 327 330 623 330 c 1
 917 330 971 504 971 578 c 1
 971 658 938 693 901 700 c 9
 319 700 l 17
81 1050 m 9
 887 1050 l 17
 1001 1050 1133 1000 1133 700 c 1
 1133 448 1037 0 607 0 c 1
 190 0 179 394 179 658 c 0
 179 672 179 686 179 700 c 9
 81 700 l 17
 92 759 101 821 101 888 c 0
 101 939 95 993 81 1050 c 9
EndSplineSet
Validated: 1
EndChar

StartChar: afii57682
Encoding: 1506 1506 19
Width: 1201
VWidth: 1290
Flags: W
TeX: 82 0
HStem: 700 350<208 227 256.938 349.084 404 497.707 526 538> 1389 20G<364 395.5>
VStem: 148 114<1199.53 1342.11> 208 330<702.952 1046.47> 323 113<1264.53 1407.11> 362 37<1050 1277.03> 483 114<1190.53 1332.11>
AnchorPoint: "puncta" 724 0 basechar 0
LayerCount: 2
Fore
SplineSet
526 1049 m 1xc6
 549 1049 l 1
 549 1049 538 941 538 884 c 0
 538 824 541 763 548 700 c 9
 404 700 l 17
 563 267 l 1
 788 345 914 386 1020 675 c 9
 725 766 l 17
 798 822 873 1059 873 1092 c 9
 1068 1020 l 17
 1104 1007 1161 972 1161 876 c 1
 1161 231 593 -50 5 -255 c 1
 24 -174 46 -96 46 -4 c 0
 46 27 44 59 38 93 c 9
 426 222 l 25
 426 222 345 696 341 700 c 9
 198 700 l 17
 198 763 208 823 208 883 c 0xd0
 208 940 205 995 198 1049 c 1
 227 1049 l 1
 187 1199 l 1
 164 1209 148 1237 148 1270 c 0
 148 1311 174 1344 205 1344 c 0
 236 1344 262 1311 262 1270 c 0
 262 1238 246 1210 225 1199 c 1
 224 1198 224 1196 224 1194 c 0
 224 1171 258 1083 279 1050 c 1
 362 1050 l 1
 362 1264 l 1xe4
 340 1274 323 1302 323 1335 c 0
 323 1376 348 1409 380 1409 c 0
 411 1409 436 1376 436 1335 c 0xc8
 436 1303 421 1275 399 1264 c 1
 399 1050 l 9
 478 1050 l 17
 510 1112 511 1146 522 1189 c 1
 499 1199 483 1227 483 1260 c 0
 483 1301 509 1334 540 1334 c 0
 571 1334 597 1301 597 1260 c 0
 597 1228 581 1201 560 1190 c 1
 526 1049 l 1xc6
EndSplineSet
Validated: 1
EndChar

StartChar: afii57683
Encoding: 1507 1507 20
Width: 1195
VWidth: 1066
Flags: W
TeX: 82 0
HStem: 87 351<236.015 496> 705 345<228.666 986>
VStem: 94 118<455.531 888.868> 119 377<91.4921 434.716> 119 26<1144.88 1187.06> 986 142<229.483 705>
AnchorPoint: "puncta" 575 0 basechar 0
LayerCount: 2
Fore
SplineSet
986 705 m 9xcc
 297 705 l 17
 238 705 212 646 212 583 c 0xe4
 212 513 244 438 297 438 c 9
 513 438 l 17
 501 368 496 294 496 217 c 1
 496 146 516 117 540 87 c 1
 453 87 474 87 418 87 c 9
 185 87 l 17
 147 87 130 118 119 184 c 1xd4
 119 345 94 490 94 626 c 0xe4
 94 775 103 915 119 1052 c 1
 119 1131 134 1190 145 1248 c 1
 153 1179 161 1108 176 1050 c 9
 1051 1050 l 17
 1108 1035 1110 827 1125 701 c 1
 1125 532 1128 362 1128 199 c 0
 1128 -142 1113 -458 1020 -700 c 1
 1020 -227 986 251 986 705 c 9xcc
EndSplineSet
Validated: 1
EndChar

StartChar: afii57684
Encoding: 1508 1508 21
Width: 1206
VWidth: 1166
Flags: W
TeX: 82 0
HStem: -350 350<135.102 906.561> 175 350<225.206 606> 700 350<217.885 885>
VStem: 99 507<281.159 522.703> 99 114<531.118 698.629> 123 42<1050.47 1117.93> 885 261<177.899 696.282> 997 149<36.8193 175>
CounterMasks: 1 e0
AnchorPoint: "puncta" 591 0 basechar 0
LayerCount: 2
Fore
SplineSet
643 175 m 1xf0
 589 175 320 175 320 175 c 1
 189 175 99 304 99 442 c 1xf0
 99 700 l 1xe8
 99 960 123 1088 123 1249 c 9
 165 1050 l 25
 1063 1050 l 25
 1084 981 l 18
 1123 851 1138 753 1138 606 c 24
 1138 458 1146 344 1146 224 c 0xe6
 1146 73 1138 24 1084 -87 c 24
 1026 -207 952 -248 868 -350 c 25
 34 -350 l 25
 63 -283 87 -248 109 -179 c 24
 130 -111 129 -70 142 0 c 25
 874 0 l 17
 969 0 997 105 997 175 c 9xe1
 885 175 l 25
 885 700 l 25
 269 700 l 17
 246 700 213 683 213 616 c 1xea
 213 549 255 525 284 525 c 0
 366 525 539 525 628 525 c 1
 614 476 606 427 606 375 c 0
 606 312 618 244 643 175 c 1xf0
EndSplineSet
Validated: 1
EndChar

StartChar: afii57685
Encoding: 1509 1509 22
Width: 1160
VWidth: 1290
Flags: W
TeX: 82 0
HStem: 240 127<349 470.105> 701 349<110 122 151.938 243 306 392.707 421 440> 1389 20G<259 290.5>
VStem: 43 114<1199.53 1342.11> 110 330<703.952 1047.47> 203 143<-68.7366 249.86 367 695.787> 218 113<1264.53 1407.11> 257 37<1050 1277.03> 378 114<1190.53 1332.11>
AnchorPoint: "puncta" 615 0 basechar 0
LayerCount: 2
Fore
SplineSet
122 1050 m 1xe8
 82 1199 l 1
 59 1209 43 1237 43 1270 c 0
 43 1311 69 1344 100 1344 c 0
 131 1344 157 1311 157 1270 c 0
 157 1238 141 1210 120 1199 c 1
 119 1198 119 1196 119 1194 c 0
 119 1171 153 1083 174 1050 c 1
 257 1050 l 1
 257 1264 l 1xf1
 235 1274 218 1302 218 1335 c 0
 218 1376 243 1409 275 1409 c 0
 306 1409 331 1376 331 1335 c 0xe2
 331 1303 316 1275 294 1264 c 1
 294 1050 l 9
 373 1050 l 17
 405 1112 406 1146 417 1189 c 1
 394 1199 378 1227 378 1260 c 0
 378 1301 404 1334 435 1334 c 0
 466 1334 492 1301 492 1260 c 0xe180
 492 1228 476 1201 455 1190 c 1
 421 1050 l 1
 451 1050 l 1
 451 1050 440 942 440 885 c 0xe8
 440 825 443 764 450 701 c 9
 306 701 l 17
 336 590 349 465 349 367 c 1
 468 367 779 578 811 651 c 1
 814 659 817 673 817 691 c 0
 817 698 817 707 815 716 c 1
 815 779 723 795 658 795 c 1
 686 834 721 875 741 917 c 0
 770 981 799 1170 799 1239 c 1
 820 1192 800 1105 859 1096 c 1
 1076 999 l 1
 1111 968 1124 936 1124 900 c 0
 1124 861 1109 818 1093 771 c 1
 1015 528 449 251 346 240 c 1
 346 -39 306 -597 272 -700 c 1
 232 -575 203 254 203 394 c 0xe4
 203 492 214 590 243 701 c 9
 100 701 l 17
 100 764 110 824 110 884 c 0
 110 941 107 996 100 1050 c 1
 122 1050 l 1xe8
EndSplineSet
Validated: 1
EndChar

StartChar: afii57686
Encoding: 1510 1510 23
Width: 1148
VWidth: 1290
Flags: W
TeX: 82 0
HStem: 0 350<153 623> 700 350<116 135 162.938 260.219 324 403.707 432 446> 708 21G<618.5 627.205> 1390 20G<270 301.5>
VStem: 54 114<1200.48 1342.16> 116 330<702.953 1047.51> 135 50<1050 1099.33> 153 896<50.2174 273.872> 229 113<1264.57 1408.06> 268 37<1050 1277.35> 389 114<1190.57 1332.16>
AnchorPoint: "puncta" 599 0 basechar 0
LayerCount: 2
Fore
SplineSet
432 1050 m 1xd020
 457 1050 l 1
 457 1050 446 942 446 885 c 0
 446 826 448 763 455 700 c 9
 324 700 l 17xd4
 376 664 624 477 624 477 c 25
 624 477 760 578 820 646 c 1
 826 661 829 669 829 677 c 0
 829 685 826 695 821 708 c 1
 799 745 765 755 730 755 c 1
 679 755 628 725 609 708 c 1
 680 786 l 1
 710 822 750 884 774 924 c 1
 821 995 843 1126 857 1190 c 1
 868 1152 860 1096 893 1078 c 1
 1047 982 l 1
 1081 945 1098 907 1098 867 c 0
 1098 834 1087 800 1065 764 c 1
 998 681 810 533 706 440 c 1
 878 350 1049 326 1049 140 c 1
 1049 58 945 0 945 0 c 17
 945 0 143 0 89 0 c 1
 147 105 153 224 153 350 c 9xb1
 623 350 l 17
 537 371 318 558 233 700 c 9
 106 700 l 17
 113 763 116 825 116 884 c 0xd4
 116 941 113 997 107 1050 c 1
 135 1050 l 1xd2
 93 1200 l 1
 70 1210 54 1238 54 1270 c 0
 54 1312 80 1344 111 1344 c 0
 142 1344 168 1312 168 1270 c 0xd8
 168 1238 156 1210 135 1200 c 1
 134 1198 130 1196 130 1194 c 0
 130 1172 164 1084 185 1050 c 1
 268 1050 l 1
 268 1264 l 1xd240
 246 1274 229 1302 229 1336 c 0
 229 1376 254 1410 286 1410 c 0
 317 1410 342 1376 342 1336 c 0xd080
 342 1304 327 1276 305 1264 c 1
 305 1050 l 9
 384 1050 l 17
 416 1112 417 1146 428 1190 c 1
 405 1200 389 1228 389 1260 c 0xd060
 389 1302 415 1334 446 1334 c 0xd4
 477 1334 503 1302 503 1260 c 0
 503 1228 487 1202 466 1190 c 1
 432 1050 l 1xd020
EndSplineSet
Validated: 1
EndChar

StartChar: afii57687
Encoding: 1511 1511 24
Width: 1152
VWidth: 1206
Flags: W
TeX: 82 0
HStem: 0 350<647 878.933> 160 350<165 299 362 495> 700 350<128 175 212 883.393> 1389 20G<177 208.5>
VStem: 136 113<1264.53 1407.11> 165 330<162.952 507.468> 175 37<1050 1277.03> 284 188<-334.538 -98.6853> 447 25<-688.172 -586> 990 106<407.072 636.098>
AnchorPoint: "puncta" 522 0 basechar 0
LayerCount: 2
Fore
SplineSet
212 1050 m 1xb240
 754 1050 l 1
 867 1050 1096 892 1096 700 c 9
 1096 348 l 17
 1096 158 854 0 758 0 c 9
 554 0 l 17
 616 89 647 184 647 288 c 0
 647 308 644 330 644 350 c 9
 836 350 l 17
 912 360 990 420 990 522 c 1
 990 631 905 680 836 700 c 9
 92 700 l 17
 110 749 124 801 124 860 c 0
 124 915 100 1039 68 1112 c 1
 128 1050 l 1
 175 1050 l 1
 175 1264 l 1xb240
 153 1274 136 1302 136 1335 c 0
 136 1376 161 1409 193 1409 c 0
 224 1409 249 1376 249 1335 c 0xb840
 249 1303 234 1275 212 1264 c 1
 212 1050 l 1xb240
495 345 m 0x7440
 495 285 505 223 505 160 c 9
 362 160 l 17
 391 49 433 -102 451 -210 c 0
 465 -292 472 -389 472 -483 c 0
 472 -580 464 -674 447 -746 c 1x70c0
 388 -586 343 -409 310 -252 c 0
 297 -189 284 -82 284 15 c 0x7140
 284 70 288 120 299 160 c 9
 155 160 l 17
 162 223 165 284 165 344 c 0
 165 401 162 456 155 510 c 1
 506 510 l 1
 506 510 495 402 495 345 c 0x7440
EndSplineSet
Validated: 1
EndChar

StartChar: afii57688
Encoding: 1512 1512 25
Width: 1260
VWidth: 1211
Flags: W
TeX: 82 0
HStem: 707 350<97 1033.76>
VStem: 1079 127<233.984 674.871>
AnchorPoint: "puncta" 569 0 basechar 0
LayerCount: 2
Fore
SplineSet
1206 599 m 1
 1206 582 1205 563 1205 542 c 8
 1205 414 1192 340 1157 217 c 24
 1125 108 1081 55 1033 -48 c 25
 1050 118 1079 211 1079 379 c 16
 1079 405 1079 427 1079 449 c 1
 1079 668 1037 707 968 707 c 0
 958 707 948 707 937 707 c 9
 82 707 l 25
 82 785 97 829 97 908 c 24
 97 966 82 999 82 1057 c 25
 874 1057 l 17
 1045 1057 1206 940 1206 599 c 1
EndSplineSet
Validated: 1
EndChar

StartChar: afii57689
Encoding: 1513 1513 26
Width: 1241
VWidth: 1290
Flags: W
TeX: 82 0
HStem: 700 350<106 132 161.263 240.484 316 401.862 431 436> 1390 20G<268 300>
VStem: 52 114<1200.48 1342.16> 106 330<702.952 1047.47> 228 112<1264.57 1408.46> 232 84<647.564 700> 266 38<1050 1278.28> 388 114<1190.57 1332.16> 631 18<1167.7 1224>
AnchorPoint: "puncta" 647 0 basechar 0
LayerCount: 2
Fore
SplineSet
132 1050 m 1xd080
 92 1200 l 1
 68 1210 52 1238 52 1270 c 0
 52 1312 78 1344 110 1344 c 0
 140 1344 166 1312 166 1270 c 0
 166 1238 150 1210 130 1200 c 1
 128 1198 128 1196 128 1194 c 0
 128 1172 162 1084 184 1050 c 1
 266 1050 l 1
 266 1264 l 1xe280
 244 1274 228 1302 228 1336 c 0
 228 1376 252 1410 284 1410 c 0
 316 1410 340 1376 340 1336 c 0xc880
 340 1304 326 1276 304 1264 c 1
 304 1050 l 9
 382 1050 l 17
 414 1112 416 1146 426 1190 c 1
 404 1200 388 1228 388 1260 c 0
 388 1302 414 1334 444 1334 c 0
 476 1334 502 1302 502 1260 c 0xc380
 502 1228 486 1202 464 1190 c 1
 431 1050 l 1
 447 1050 l 1
 447 1050 436 942 436 885 c 0xd080
 436 825 439 763 446 700 c 9
 316 700 l 17
 346 589 427 294 427 294 c 1
 520 413 622 552 664 734 c 9
 480 840 l 17
 519 886 554 939 587 996 c 1
 627 1064 617 1149 631 1224 c 1
 638 1225 647 1224 649 1212 c 1
 649 1197 648 1182 648 1167 c 0
 648 1130 655 1094 701 1059 c 9
 818 968 l 17
 834 945 849 925 849 895 c 0
 849 890 849 884 848 878 c 1
 836 807 807 702 767 636 c 1
 682 494 579 377 480 255 c 1
 691 255 880 384 985 549 c 1
 1017 606 1041 653 1041 690 c 0
 1041 697 1040 703 1039 711 c 9
 858 778 l 17
 888 830 914 888 937 950 c 0
 958 1010 955 997 971 1064 c 1
 1037 1032 l 9
 1176 962 l 17
 1197 942 1205 917 1205 889 c 0
 1205 867 1200 844 1194 820 c 1
 1179 757 1120 648 1091 596 c 1
 966 255 757 115 388 0 c 9
 388 0 261 554 232 700 c 9xc580
 96 700 l 17
 103 763 106 824 106 884 c 0
 106 941 103 996 96 1050 c 1
 132 1050 l 1xd080
EndSplineSet
Validated: 1
EndChar

StartChar: afii57690
Encoding: 1514 1514 27
Width: 1210
VWidth: 1324
Flags: W
TeX: 82 0
HStem: 0 350<124 385.41> 700 350<118 240 362 890 1019 1148>
VStem: 118 1030<702.118 1048.37>
AnchorPoint: "puncta" 579 0 basechar 0
LayerCount: 2
Fore
SplineSet
240 700 m 1
 101 700 l 1
 113 745 118 802 118 858 c 0
 118 938 108 1016 98 1050 c 1
 1148 1050 l 9
 1148 700 l 25
 1019 700 l 17
 1083 542 1143 425 1143 240 c 1
 1143 149 1097 46 989 -24 c 9
 890 700 l 17
 362 700 l 1
 443 512 510 424 544 224 c 1
 547 215 548 206 548 198 c 0
 548 95 408 0 373 0 c 9
 79 0 l 25
 124 350 l 25
 387 350 l 25
 240 700 l 1
EndSplineSet
Validated: 1
EndChar

StartChar: exclam
Encoding: 33 33 29
Width: 442
VWidth: 1408
Flags: W
TeX: 85 0
HStem: 359 21G<163 234.774>
VStem: 98 240<850.033 953.369>
LayerCount: 2
Fore
SplineSet
204 244 m 25
 296 116 l 25
 202 0 l 25
 112 120 l 25
 204 244 l 25
228 1136 m 25
 338 926 l 25
 231 359 l 17
 163 362 l 9
 98 938 l 25
 228 1136 l 25
EndSplineSet
Validated: 1
EndChar

StartChar: quotedbl
Encoding: 34 34 30
Width: 723
VWidth: 1571
Flags: W
TeX: 95 0
HStem: 801 554
VStem: 390 171<1000.42 1196.53>
LayerCount: 2
Fore
SplineSet
408 801 m 1
 389 814 390 829 390 841 c 0
 390 841 407 1156 469 1322 c 1
 485 1344 508 1355 541 1355 c 0
 561 1355 579 1351 594 1343 c 1
 613 1322 624 1298 624 1270 c 0
 624 1219 564 1133 561 1103 c 1
 450 855 459 801 408 801 c 1
121 801 m 1
 101 812 100 833 100 841 c 0
 100 851 101 862 104 873 c 0
 104 873 125 1177 179 1322 c 1
 194 1344 219 1355 251 1355 c 0
 271 1355 288 1351 303 1343 c 1
 324 1322 333 1298 333 1270 c 0
 333 1215 274 1137 271 1103 c 1
 165 865 168 801 121 801 c 1
EndSplineSet
Validated: 1
EndChar

StartChar: percent
Encoding: 37 37 31
Width: 1564
VWidth: 1352
Flags: W
TeX: 94 0
HStem: -15 158<1111.55 1348.68> 285 167<228.048 476.577> 503 149<1074.98 1310.82> 796 154<202.633 435.064>
VStem: 100 67<548.893 778.863> 497 77<477.824 725.584> 969 78<215.015 489.213> 1374 90<158.418 436.214>
LayerCount: 2
Fore
SplineSet
103 527 m 1
 103 563 100 599 100 647 c 0
 100 820 190 907 234 928 c 1
 261 943 290 950 321 950 c 0
 463 950 539 858 558 761 c 0
 569 705 574 649 574 592 c 0
 574 490 544 386 492 338 c 0
 448 299 430 285 371 285 c 0
 320 285 269 304 244 313 c 0
 199 328 116 394 103 527 c 1
1056 935 m 1
 1020 849 974 749 919 638 c 2
 750 298 l 1
 695 183 652 86 621 7 c 1
 477 7 l 1
 630 324 l 1
 937 935 l 1
 1056 935 l 1
1464 300 m 0
 1464 170 1398 -15 1250 -15 c 0
 1200 -15 1095 7 1036 74 c 0
 1006 108 969 176 969 320 c 0
 969 384 979 421 998 470 c 1
 1040 599 1090 635 1166 647 c 1
 1179 651 1194 652 1210 652 c 0
 1247 652 1339 645 1393 553 c 1
 1440 477 1464 393 1464 300 c 0
497 591 m 0
 497 729 413 796 328 796 c 2
 297 796 l 2
 287 796 276 795 265 796 c 1
 204 796 206 793 187 758 c 1
 173 736 167 708 167 670 c 0
 167 616 182 578 222 506 c 0
 242 470 278 452 331 452 c 2
 367 452 l 2
 377 451 386 451 394 451 c 0
 458 451 468 470 477 488 c 0
 490 519 497 553 497 591 c 0
1343 159 m 1
 1364 194 1374 237 1374 285 c 0
 1374 431 1288 481 1270 488 c 0
 1247 498 1217 503 1181 503 c 2
 1144 503 l 1
 1096 487 1076 506 1060 457 c 0
 1052 436 1047 408 1047 372 c 0
 1047 348 1055 301 1065 255 c 1
 1083 188 1160 143 1250 143 c 0
 1282 143 1313 149 1343 159 c 1
EndSplineSet
Validated: 1
EndChar

StartChar: numbersign
Encoding: 35 35 32
Width: 1001
VWidth: 1411
Flags: W
TeX: 92 0
HStem: 445 98<100 265 391 581 697 863> 748 101<139 318 431 621 737 902>
LayerCount: 2
Fore
SplineSet
902 748 m 1
 724 748 l 1
 697 543 l 1
 863 543 l 1
 863 445 l 1
 684 445 l 1
 634 99 l 1
 533 99 l 1
 581 445 l 1
 367 445 l 1
 318 99 l 1
 213 99 l 1
 265 445 l 1
 100 445 l 1
 100 543 l 1
 290 543 l 1
 318 748 l 1
 139 748 l 1
 139 849 l 1
 328 849 l 1
 381 1168 l 1
 481 1168 l 1
 431 849 l 1
 634 849 l 1
 684 1168 l 1
 785 1168 l 1
 737 849 l 1
 902 849 l 1
 902 748 l 1
621 748 m 1
 417 748 l 1
 391 543 l 1
 596 543 l 1
 621 748 l 1
EndSplineSet
Validated: 1
EndChar

StartChar: dollar
Encoding: 36 36 33
Width: 901
VWidth: 1385
Flags: W
TeX: 84 0
HStem: 76 177<146.281 219.418> 879 168<611.52 711.057>
VStem: 115 143<781.628 972.039> 407 75<-41.4688 26.2075 113 438 728 1012 1096.05 1162.81> 640 162<174.233 357.619>
LayerCount: 2
Fore
SplineSet
802 322 m 0
 802 133 627 27 471 27 c 1
 476 10 478 -1 478 -8 c 0
 478 -30 450 -44 429 -44 c 0
 411 -44 399 -34 399 -20 c 1
 402 -4 403 9 403 15 c 0
 403 19 402 20 402 24 c 1
 311 40 190 44 115 76 c 1
 105 85 100 95 100 105 c 0
 100 157 115 206 146 253 c 1
 152 259 158 259 163 253 c 1
 267 171 316 142 407 113 c 1
 407 474 l 1
 121 632 115 752 115 821 c 0
 115 949 191 1037 282 1060 c 1
 329 1074 369 1083 402 1090 c 0
 403 1090 403 1101 403 1122 c 0
 403 1154 431 1165 454 1165 c 0
 460 1165 466 1164 471 1163 c 1
 478 1159 482 1151 482 1138 c 0
 482 1133 481 1124 481 1114 c 1
 479 1103 478 1097 479 1096 c 0
 527 1076 633 1070 709 1047 c 1
 724 1038 731 1031 731 1026 c 0
 731 969 716 919 685 879 c 1
 626 899 557 973 482 1012 c 1
 482 673 l 1
 615 615 802 503 802 322 c 0
407 1019 m 1
 293 979 258 953 258 890 c 0
 258 793 339 740 407 728 c 1
 407 1019 l 1
486 102 m 1
 618 124 640 211 640 249 c 0
 640 313 608 362 528 421 c 1
 486 438 l 1
 486 102 l 1
EndSplineSet
Validated: 1
EndChar

StartChar: ampersand
Encoding: 38 38 34
Width: 1372
VWidth: 1419
Flags: W
TeX: 82 0
HStem: 83 128<942.66 1135.16> 92 93<346.877 589.823> 782 25<853 896.901 1163.46 1195> 1161 66<557.266 725.972>
VStem: 100 171<261.079 503.987> 365 130<832.482 1111.47> 754 85<917.043 1141.87>
LayerCount: 2
Fore
SplineSet
1083 211 m 0xbe
 1173 211 1214 268 1233 297 c 1
 1272 272 l 1
 1220 196 1133 83 998 83 c 0xbe
 949 83 867 93 751 235 c 1
 669 160 526 92 379 92 c 0x7e
 249 92 100 146 100 360 c 0
 100 460 160 553 278 640 c 1
 420 731 l 1
 374 859 365 925 365 974 c 0
 365 1160 536 1227 628 1227 c 0
 707 1227 839 1181 839 997 c 1
 828 868 701 774 600 731 c 1
 801 399 l 1
 927 589 l 2
 939 607 957 643 957 687 c 0
 957 748 913 771 853 782 c 1
 853 807 l 1
 1195 807 l 1
 1195 782 l 1
 1113 751 1085 742 1057 691 c 1
 853 360 l 1
 852 358 851 355 851 352 c 0
 851 309 973 211 1083 211 c 0xbe
558 792 m 1
 654 849 754 907 754 1051 c 0
 754 1117 712 1161 649 1161 c 0
 575 1161 495 1103 495 997 c 0
 495 897 532 854 558 792 c 1
271 404 m 0
 271 269 353 185 477 185 c 0x7e
 566 185 634 225 700 283 c 1
 445 666 l 1
 351 603 271 509 271 404 c 0
EndSplineSet
Validated: 1
EndChar

StartChar: quotesingle
Encoding: 39 39 35
Width: 408
VWidth: 1600
Flags: W
TeX: 95 0
HStem: 971 375
VStem: 169 139<1083.88 1209.13>
LayerCount: 2
Fore
SplineSet
110 980 m 1
 110 1026 169 1045 169 1113 c 0
 169 1130 162 1151 146 1176 c 2
 100 1247 l 1
 105 1262 l 1
 208 1346 l 1
 237 1343 l 1
 304 1272 308 1214 308 1187 c 0
 308 1108 205 1012 137 971 c 1
 125 967 117 970 110 980 c 1
EndSplineSet
Validated: 1
EndChar

StartChar: parenleft
Encoding: 40 40 36
Width: 627
VWidth: 1492
Flags: W
TeX: 94 0
VStem: 100 197<298.671 814.191>
LayerCount: 2
Fore
SplineSet
501 1243 m 1
 339 1038 297 763 297 572 c 0
 297 329 361 121 410 30 c 1
 437 -24 460 -63 481 -88 c 1
 528 -151 l 1
 504 -180 l 1
 464 -173 435 -140 415 -128 c 1
 265 23 100 262 100 558 c 0
 100 560 100 563 100 566 c 0
 100 623 104 826 276 1059 c 1
 328 1133 391 1202 465 1269 c 1
 501 1243 l 1
EndSplineSet
Validated: 1
EndChar

StartChar: parenright
Encoding: 41 41 37
Width: 610
VWidth: 1497
Flags: W
TeX: 94 0
VStem: 318 193<273.539 800.883>
LayerCount: 2
Fore
SplineSet
511 515 m 0
 511 399 484 305 422 162 c 1
 338 8 242 -96 139 -169 c 1
 100 -155 l 1
 104 -138 117 -114 137 -83 c 1
 204 33 l 1
 239 101 318 328 318 578 c 0
 318 758 286 900 224 1029 c 1
 214 1060 196 1098 168 1143 c 2
 108 1240 l 1
 117 1272 l 1
 121 1281 126 1286 131 1286 c 0
 141 1286 158 1273 184 1247 c 1
 294 1127 l 1
 345 1068 511 838 511 515 c 0
EndSplineSet
Validated: 1
EndChar

StartChar: asterisk
Encoding: 42 42 38
Width: 852
VWidth: 1516
Flags: W
TeX: 82 0
HStem: 612 623
VStem: 326 163<1075.04 1218.3>
LayerCount: 2
Fore
SplineSet
741 978 m 1
 735 964 752 945 752 926 c 1
 747 911 l 1
 509 911 l 1
 492 880 l 1
 672 736 l 1
 674 730 675 725 675 720 c 0
 675 696 649 683 612 659 c 1
 552 615 538 614 516 612 c 1
 500 645 486 682 475 723 c 2
 442 847 l 1
 439 849 431 851 420 851 c 1
 396 777 340 657 333 626 c 1
 328 619 323 616 318 616 c 1
 303 620 294 623 289 626 c 2
 171 707 l 1
 171 736 l 1
 198 759 228 783 264 810 c 2
 365 887 l 1
 365 903 362 912 358 914 c 1
 121 914 l 1
 119 913 116 913 114 913 c 0
 106 913 102 920 102 932 c 0
 102 970 139 1056 164 1094 c 1
 190 1088 l 1
 373 974 l 1
 384 977 393 986 405 992 c 1
 387 1032 355 1114 326 1197 c 1
 326 1208 332 1217 341 1226 c 1
 369 1232 398 1235 426 1235 c 0
 441 1235 453 1235 463 1234 c 0
 474 1234 494 1232 523 1227 c 1
 530 1221 l 1
 518 1163 505 1136 489 1079 c 1
 489 1078 489 1077 489 1076 c 0
 489 1056 462 1011 462 1000 c 0
 462 989 471 978 489 969 c 1
 689 1101 l 1
 707 1083 726 1034 741 978 c 1
EndSplineSet
Validated: 1
EndChar

StartChar: plus
Encoding: 43 43 39
Width: 1121
VWidth: 1339
Flags: W
TeX: 94 0
HStem: 375 116<100 503 613 1021>
VStem: 503 110<-43 375 491 908>
LayerCount: 2
Fore
SplineSet
1021 375 m 1
 613 375 l 1
 613 -43 l 1
 503 -43 l 1
 503 375 l 1
 100 375 l 1
 100 491 l 1
 503 491 l 1
 503 908 l 1
 613 908 l 1
 613 491 l 1
 1021 491 l 1
 1021 375 l 1
EndSplineSet
Validated: 1
EndChar

StartChar: comma
Encoding: 44 44 40
Width: 403
VWidth: 1169
Flags: W
TeX: 83 0
HStem: -235 384
VStem: 163 140<-112.533 10.3018>
LayerCount: 2
Fore
SplineSet
101 -221 m 1
 103 -172 163 -154 163 -88 c 0
 163 -64 155 -41 139 -19 c 2
 100 37 l 1
 101 63 l 1
 118 76 137 92 158 107 c 1
 210 149 l 1
 213 150 215 150 218 150 c 0
 239 150 249 126 281 76 c 1
 296 56 303 28 303 -8 c 0
 303 -55 265 -111 221 -158 c 1
 192 -191 160 -217 126 -235 c 1
 114 -237 106 -233 101 -221 c 1
EndSplineSet
Validated: 1
EndChar

StartChar: hyphen
Encoding: 45 45 41
Width: 787
VWidth: 1383
Flags: W
TeX: 88 0
HStem: 433 243<160.47 583>
VStem: 100 589<506.966 609.029>
LayerCount: 2
Fore
SplineSet
640 676 m 1
 664 671 689 665 689 629 c 0
 689 617 686 601 679 580 c 1
 672 557 652 517 619 462 c 1
 583 433 l 1
 155 433 l 2
 103 433 100 458 100 493 c 0
 100 526 155 648 193 667 c 1
 200 669 211 671 224 676 c 1
 640 676 l 1
EndSplineSet
Validated: 1
EndChar

StartChar: period
Encoding: 46 46 42
Width: 390
VWidth: 1196
Flags: W
TeX: 94 0
HStem: -92 251
VStem: 100 190
LayerCount: 2
Fore
SplineSet
290 35 m 1
 196 -92 l 1
 100 35 l 1
 196 159 l 1
 290 35 l 1
EndSplineSet
Validated: 1
EndChar

StartChar: slash
Encoding: 47 47 43
Width: 933
VWidth: 1337
Flags: W
TeX: 97 0
LayerCount: 2
Fore
SplineSet
834 960 m 1
 829 951 822 940 813 929 c 1
 754 835 l 1
 681 716 569 518 457 281 c 1
 290 -77 l 1
 261 -105 224 -119 167 -119 c 0
 155 -119 144 -119 133 -117 c 2
 100 -115 l 1
 108 -86 l 1
 203 60 294 218 382 388 c 1
 650 938 l 1
 670 966 737 969 754 969 c 0
 771 969 787 968 801 967 c 1
 834 960 l 1
EndSplineSet
Validated: 1
EndChar

StartChar: zero
Encoding: 48 48 44
Width: 917
VWidth: 1369
Flags: W
TeX: 103 0
HStem: 3 225<316.973 633.926> 822 203<275.771 623.811>
VStem: 84 91<360.492 781.631> 743 108<297.291 710.566>
LayerCount: 2
Fore
SplineSet
521 1026 m 0
 796 1025 839 811 851 570 c 1
 851 300 726 57 571 19 c 0
 529 8 492 3 458 3 c 0
 193 3 89 236 89 411 c 0
 89 503 84 518 84 564 c 0
 84 797 186 901 222 937 c 0
 280 996 346 1025 420 1025 c 2
 469 1025 l 2
 485 1025 503 1026 521 1026 c 0
437 822 m 0
 407 822 384 818 362 814 c 1
 297 808 175 803 175 709 c 0
 176 693 176 681 176 674 c 0
 176 653 176 632 175 613 c 2
 175 551 l 2
 175 410 211 303 373 247 c 1
 414 235 456 228 500 228 c 0
 574 228 646 246 718 280 c 1
 735 340 743 403 743 467 c 0
 743 688 693 738 630 774 c 0
 573 806 509 822 437 822 c 0
EndSplineSet
Validated: 1
EndChar

StartChar: one
Encoding: 49 49 45
Width: 588
VWidth: 1377
Flags: W
TeX: 94 0
VStem: 300 194<71.832 780>
LayerCount: 2
Fore
SplineSet
39 931 m 1
 54 975 182 945 326 1032 c 1
 494 1032 l 1
 494 88 l 1
 464 37 368 53 300 42 c 1
 300 780 l 1
 200 750 l 2
 141 733 109 725 66 725 c 0
 58 725 49 725 39 726 c 1
 39 931 l 1
EndSplineSet
Validated: 1
EndChar

StartChar: two
Encoding: 50 50 46
Width: 894
VWidth: 1379
Flags: W
TeX: 98 0
HStem: 48 254<365.674 772>
VStem: 542 235<587.198 820.5>
LayerCount: 2
Fore
SplineSet
361 273 m 1
 461 297 542 301 675 302 c 2
 805 302 l 1
 815 293 823 281 823 267 c 1
 772 48 l 1
 71 48 l 1
 59 62 54 82 54 103 c 0
 54 140 68 181 76 205 c 1
 121 232 183 256 243 289 c 1
 343 354 536 512 542 665 c 1
 538 772 437 814 337 827 c 1
 150 774 l 1
 135 787 135 801 145 821 c 0
 177 888 173 1034 284 1034 c 0
 287 1034 289 1034 292 1034 c 1
 458 1036 l 1
 570 1036 647 1024 712 973 c 1
 755 925 l 1
 769 880 777 840 777 801 c 0
 777 738 755 680 698 621 c 2
 361 273 l 1
EndSplineSet
Validated: 1
EndChar

StartChar: three
Encoding: 51 51 47
Width: 901
VWidth: 1373
Flags: W
TeX: 98 0
HStem: 22 150<239.822 592.125> 794 234<232 561>
VStem: 173 592<819 1007> 634 211<204.45 363.743>
LayerCount: 2
Fore
SplineSet
204 233 m 1xd0
 260 203 359 172 450 172 c 0
 493 172 537 180 582 194 c 1
 616 219 630 234 634 263 c 1xd0
 634 416 437 419 367 451 c 1
 357 454 352 461 352 472 c 1
 355 483 357 490 357 495 c 1
 449 616 463 652 561 794 c 1
 182 794 l 1
 176 800 173 808 173 819 c 0
 173 843 200 927 204 940 c 2
 232 1028 l 1
 755 1028 l 1
 762 1024 765 1017 765 1007 c 0xe0
 765 1001 763 995 760 988 c 2
 651 803 l 1
 521 596 l 1
 604 581 845 540 845 346 c 0
 845 175 685 88 626 75 c 1
 550 40 464 22 366 22 c 0
 279 22 169 37 52 83 c 1
 44 88 40 97 40 109 c 0
 40 117 41 122 43 124 c 2
 106 252 l 1
 114 256 122 258 128 258 c 0
 147 258 181 233 204 233 c 1xd0
EndSplineSet
Validated: 1
EndChar

StartChar: four
Encoding: 52 52 48
Width: 969
VWidth: 1383
Flags: W
TeX: 86 0
HStem: 230 227<208 561 742 917> 1035 20G<620 693.5>
VStem: 561 181<56 230 457 906>
LayerCount: 2
Fore
SplineSet
679 1055 m 0
 708 1055 742 1048 742 1019 c 2
 742 457 l 1
 917 457 l 1
 917 235 l 1
 742 235 l 1
 742 56 l 1
 561 56 l 1
 561 230 l 1
 65 230 l 1
 65 242 64 259 64 283 c 0
 64 349 75 388 104 426 c 1
 145 493 211 583 299 695 c 1
 457 898 l 1
 512 1004 561 1055 679 1055 c 0
561 457 m 1
 561 906 l 1
 208 457 l 1
 561 457 l 1
EndSplineSet
Validated: 1
EndChar

StartChar: five
Encoding: 53 53 49
Width: 858
VWidth: 1357
Flags: W
TeX: 86 0
HStem: 4 165<314.929 567.419> 390 203<217.929 534.017> 390 177<215 441.517> 760 184<254.936 738.764> 776 182<211.291 559.064>
VStem: 137 73<567 776> 599 183<190.04 327.098>
LayerCount: 2
Fore
SplineSet
782 330 m 0xc6
 782 262 749 4 383 4 c 0
 255 4 146 33 53 67 c 1
 46 71 43 77 43 85 c 0
 43 96 89 214 122 241 c 1
 232 216 343 192 454 169 c 1
 487 169 522 175 558 186 c 1
 581 205 595 227 599 251 c 1
 599 275 597 288 571 329 c 1
 512 362 416 390 221 390 c 2xc6
 137 390 l 1
 137 845 l 1
 138 851 137 862 137 878 c 2
 137 911 l 2
 137 939 142 945 155 958 c 1xae
 354 958 609 944 723 944 c 1
 743 948 756 943 760 929 c 1
 746 824 745 790 709 760 c 1
 599 760 l 1x96
 215 776 l 1
 212 752 211 732 211 717 c 0
 210 700 210 685 210 673 c 2
 210 619 l 1
 214 595 215 577 215 567 c 1xae
 277 581 371 593 445 593 c 0
 548 593 643 574 707 525 c 1
 754 478 782 409 782 330 c 0xc6
EndSplineSet
Validated: 1
EndChar

StartChar: six
Encoding: 54 54 50
Width: 895
VWidth: 1377
Flags: W
TeX: 97 0
HStem: 27 210<340.515 619.803> 566 132<348 694> 1030 20G<570 594.5>
VStem: 74 175<326.223 541.418> 690 163<257.193 477.701>
LayerCount: 2
Fore
SplineSet
343 630 m 1
 469 669 520 698 593 698 c 0
 795 698 853 504 853 411 c 0
 853 394 l 0
 853 351 852 352 837 309 c 0
 782 146 620 27 428 27 c 0
 406 27 368 32 314 41 c 0
 221 58 74 193 74 377 c 0
 74 405 78 435 87 466 c 1
 100 541 136 621 196 705 c 2
 372 950 l 1
 422 1032 437 1048 482 1048 c 2
 530 1048 l 2
 545 1048 562 1049 578 1050 c 0
 611 1050 643 1046 674 1039 c 1
 501 828 l 1
 343 630 l 1
561 237 m 0
 564 237 l 0
 599 237 690 239 690 363 c 0
 690 526 509 566 413 566 c 0
 283 566 249 520 249 450 c 0
 249 392 280 258 473 239 c 1
 508 239 526 237 561 237 c 0
EndSplineSet
Validated: 1
EndChar

StartChar: seven
Encoding: 55 55 51
Width: 746
VWidth: 1369
Flags: W
TeX: 97 0
HStem: 781 228<89 583>
LayerCount: 2
Fore
SplineSet
748 1009 m 1
 465 195 l 1
 426 58 420 49 393 19 c 1
 355 19 296 22 199 33 c 1
 198 39 196 43 196 49 c 0
 196 73 220 113 355 358 c 2
 494 614 l 2
 543 705 573 761 583 781 c 1
 38 781 l 1
 28 782 23 789 23 803 c 0
 23 810 24 818 26 827 c 1
 89 1009 l 1
 748 1009 l 1
EndSplineSet
Validated: 1
EndChar

StartChar: eight
Encoding: 56 56 52
Width: 894
VWidth: 1376
Flags: W
TeX: 85 0
HStem: 15 174<325.108 639.725> 905 148<270.198 562.881>
VStem: 82 133<285.971 468.29> 117 145<758.608 890.091> 617 134<712.011 923> 662 169<211.706 485.158>
LayerCount: 2
Fore
SplineSet
617 622 m 1xd8
 666 589 831 593 831 376 c 0
 831 211 709 15 458 15 c 0
 285 15 82 127 82 324 c 0xe4
 82 419 135 514 228 553 c 1
 158 597 117 666 117 765 c 0
 117 924 252 1053 458 1053 c 0
 631 1053 751 979 751 867 c 0
 751 754 693 671 617 622 c 1xd8
617 759 m 1xd8
 617 879 466 905 410 905 c 0
 378 905 293 902 269 864 c 1
 264 858 262 851 262 842 c 0
 262 804 309 741 359 716 c 0
 406 692 468 670 547 649 c 1
 589 674 612 710 617 759 c 1xd8
544 189 m 1
 643 194 662 268 662 287 c 0
 662 341 619 394 544 423 c 2
 295 518 l 1
 238 479 215 433 215 388 c 0xe4
 215 323 265 261 330 231 c 0
 395 203 467 189 544 189 c 1
EndSplineSet
Validated: 1
EndChar

StartChar: nine
Encoding: 57 57 53
Width: 830
VWidth: 1380
Flags: W
TeX: 92 0
HStem: 369 125<373.718 507.769> 873 188<253.199 498.808>
VStem: 65 146<655.46 856.387> 609 174<530.435 768.866>
LayerCount: 2
Fore
SplineSet
425 1061 m 0
 623 1061 783 892 783 697 c 0
 783 617 781 592 671 413 c 1
 458 58 l 1
 410 41 326 28 252 28 c 0
 227 28 191 30 204 45 c 0
 264 107 319 169 368 231 c 2
 513 415 l 1
 400 373 378 369 333 369 c 0
 314 369 265 381 237 389 c 0
 192 400 65 511 65 690 c 0
 65 883 212 1061 425 1061 c 0
609 633 m 0
 609 714 555 873 330 873 c 0
 285 873 253 867 236 852 c 1
 219 835 211 820 211 808 c 0
 211 802 215 775 223 728 c 1
 235 661 342 494 537 494 c 1
 585 524 609 570 609 633 c 0
EndSplineSet
Validated: 1
EndChar

StartChar: colon
Encoding: 58 58 54
Width: 390
VWidth: 1386
Flags: W
TeX: 83 0
HStem: 329 20G<180.516 211.161>
VStem: 100 190
LayerCount: 2
Fore
SplineSet
290 902 m 1
 196 775 l 1
 100 902 l 1
 196 1027 l 1
 290 902 l 1
290 225 m 1
 196 97 l 1
 100 225 l 1
 196 349 l 1
 290 225 l 1
EndSplineSet
Validated: 1
EndChar

StartChar: semicolon
Encoding: 59 59 55
Width: 404
VWidth: 1352
Flags: W
TeX: 97 0
VStem: 100 182<169.822 237> 164 140<65.2352 241.934>
LayerCount: 2
Fore
SplineSet
290 868 m 1x80
 196 741 l 1
 100 868 l 1
 196 993 l 1
 290 868 l 1x80
164 96 m 0x40
 164 133 149 161 100 220 c 1
 100 237 l 1
 209 325 l 1
 210 325 211 325 212 325 c 0
 233 325 250 303 282 259 c 0x80
 297 238 304 207 304 168 c 0
 304 139 301 105 217 15 c 1
 190 -16 161 -39 131 -56 c 1
 115 -56 108 -53 108 -47 c 1
 125 30 164 33 164 96 c 0x40
EndSplineSet
Validated: 1
EndChar

StartChar: less
Encoding: 60 60 56
Width: 1048
VWidth: 1356
Flags: W
TeX: 91 0
LayerCount: 2
Fore
SplineSet
948 42 m 1
 100 438 l 1
 100 542 l 1
 948 918 l 1
 948 793 l 1
 254 488 l 1
 948 163 l 1
 948 42 l 1
EndSplineSet
Validated: 1
EndChar

StartChar: equal
Encoding: 61 61 57
Width: 1134
VWidth: 1348
Flags: W
TeX: 85 0
HStem: 266 109<100 1035> 543 107<100 1035>
LayerCount: 2
Fore
SplineSet
1035 543 m 1
 100 543 l 1
 100 650 l 1
 1035 650 l 1
 1035 543 l 1
1035 266 m 1
 100 266 l 1
 100 375 l 1
 1035 375 l 1
 1035 266 l 1
EndSplineSet
Validated: 1
EndChar

StartChar: greater
Encoding: 62 62 58
Width: 1048
VWidth: 1356
Flags: W
TeX: 87 0
LayerCount: 2
Fore
SplineSet
948 416 m 1
 100 42 l 1
 100 163 l 1
 793 470 l 1
 100 793 l 1
 100 918 l 1
 948 519 l 1
 948 416 l 1
EndSplineSet
Validated: 1
EndChar

StartChar: question
Encoding: 63 63 59
Width: 524
VWidth: 1392
Flags: W
TeX: 95 0
HStem: 335 20G<262.032 293.161> 1034 20G<226.5 269.5>
VStem: 93 100<747.136 883.09> 99 79<813.144 896.407> 253 62<463 659> 300 143<741.493 861.37>
LayerCount: 2
Fore
SplineSet
243 1054 m 0xd0
 296 1054 443 937 443 838 c 0xd4
 443 764 349 699 315 636 c 1
 315 467 l 1
 298 460 275 450 269 451 c 1
 253 463 l 1
 253 659 l 1xc8
 287 727 l 1
 296 746 300 762 300 775 c 0
 300 824 262 870 194 897 c 1
 183 894 178 890 178 885 c 0xd4
 186 844 193 819 193 803 c 0
 193 767 175 744 156 744 c 0
 154 744 153 744 152 744 c 1
 99 753 93 766 93 813 c 1xe0
 93 815 99 886 99 888 c 0
 99 923 116 970 135 996 c 1
 160 1019 210 1054 243 1054 c 0xd0
372 231 m 1
 278 103 l 1
 179 231 l 1
 278 355 l 1
 372 231 l 1
EndSplineSet
Validated: 1
EndChar

StartChar: at
Encoding: 64 64 60
Width: 1542
VWidth: 1358
Flags: W
TeX: 82 0
HStem: -193 75<610.87 1029.67> 123 71<652.322 793.588 1028.58 1188.12> 746 73<785.735 922.996> 1068 95<612.531 1066.08>
VStem: 100 144<222.083 656.049> 462 158<214.978 557.192> 1359 84<404.537 766.414>
LayerCount: 2
Fore
SplineSet
1443 572 m 0
 1443 545 1440 539 1440 517 c 0
 1440 466 1406 387 1338 281 c 0
 1270 176 1187 123 1091 123 c 0
 955 123 921 180 888 236 c 1
 841 175 761 118 660 118 c 0
 539 118 477 196 470 250 c 0
 466 283 463 306 462 319 c 2
 462 354 l 2
 462 358 462 362 462 367 c 0
 462 423 467 554 591 700 c 1
 640 760 715 819 818 819 c 0
 904 819 950 777 986 721 c 1
 1001 795 l 1
 1141 795 l 1
 1013 249 l 1
 1036 213 1065 194 1101 194 c 0
 1209 194 1359 375 1359 616 c 1
 1318 914 1086 1068 860 1068 c 0
 839 1068 791 1064 715 1057 c 0
 579 1044 332 863 281 631 c 1
 256 529 244 455 244 408 c 0
 244 252 302 125 417 29 c 1
 532 -69 670 -118 833 -118 c 0
 977 -118 1094 -76 1191 -17 c 1
 1219 -82 l 1
 1068 -156 920 -193 778 -193 c 0
 371 -193 100 121 100 448 c 0
 100 601 143 730 230 835 c 0
 488 1146 743 1163 888 1163 c 0
 1076 1163 1215 1100 1306 974 c 0
 1397 848 1443 714 1443 572 c 0
860 746 m 1
 797 746 620 601 620 363 c 0
 620 284 640 197 708 197 c 1
 750 205 898 234 937 489 c 1
 947 532 952 570 952 605 c 0
 952 688 921 735 860 746 c 1
EndSplineSet
Validated: 1
EndChar

StartChar: bracketleft
Encoding: 91 91 61
Width: 596
VWidth: 1319
Flags: W
TeX: 83 0
HStem: -348 62<297 496> 1032 69<297 488>
VStem: 100 197<-286 1032>
LayerCount: 2
Fore
SplineSet
496 -348 m 1
 100 -348 l 1
 100 1101 l 1
 488 1101 l 1
 488 1032 l 1
 297 1032 l 1
 297 -286 l 1
 496 -286 l 1
 496 -348 l 1
EndSplineSet
Validated: 1
EndChar

StartChar: backslash
Encoding: 92 92 62
Width: 719
VWidth: 1434
Flags: W
TeX: 83 0
VStem: 100 520
LayerCount: 2
Fore
SplineSet
620 122 m 1
 479 122 l 1
 100 1270 l 1
 254 1270 l 1
 620 122 l 1
EndSplineSet
Validated: 1
EndChar

StartChar: bracketright
Encoding: 93 93 63
Width: 593
VWidth: 1320
Flags: W
TeX: 83 0
HStem: -346 60<100 297> 1039 62<105 297>
VStem: 297 197<-286 1039>
LayerCount: 2
Fore
SplineSet
494 -346 m 1
 100 -346 l 1
 100 -286 l 1
 297 -286 l 1
 297 1039 l 1
 105 1039 l 1
 105 1101 l 1
 494 1101 l 1
 494 -346 l 1
EndSplineSet
Validated: 1
EndChar

StartChar: asciicircum
Encoding: 94 94 64
Width: 914
VWidth: 1536
Flags: W
TeX: 82 0
HStem: 642 675
LayerCount: 2
Fore
SplineSet
814 642 m 1
 699 642 l 1
 456 1187 l 1
 215 642 l 1
 100 642 l 1
 406 1317 l 1
 508 1317 l 1
 814 642 l 1
EndSplineSet
Validated: 1
EndChar

StartChar: underscore
Encoding: 95 95 65
Width: 1192
VWidth: 1003
Flags: W
TeX: 99 0
HStem: -558 108<100 1092>
LayerCount: 2
Fore
SplineSet
1092 -558 m 1
 100 -558 l 1
 100 -450 l 1
 1092 -450 l 1
 1092 -558 l 1
EndSplineSet
Validated: 1
EndChar

StartChar: uni05C4
Encoding: 1476 1476 102
Width: 0
VWidth: 1877
Flags: W
HStem: 1565 323
VStem: -156 312
AnchorPoint: "puncta" 0 0 mark 0
LayerCount: 2
Fore
SplineSet
4 1565 m 1
 -21 1594 -46 1621 -72 1648 c 0
 -98 1675 -126 1701 -156 1726 c 1
 -133 1757 -109 1785 -84 1812 c 0
 -60 1838 -33 1863 -4 1888 c 1
 24 1864 52 1838 80 1810 c 0
 107 1782 133 1753 156 1722 c 1
 127 1697 100 1672 76 1646 c 0
 50 1621 27 1594 4 1565 c 1
EndSplineSet
Validated: 1
EndChar

StartChar: NameMe.106
Encoding: 65538 -1 103
Width: 2048
VWidth: 0
LayerCount: 2
Back
SplineSet
350 1060 m 29
 355 1060.66 l 29
 355 9.65625 l 29
 350 9.65625 l 29
 350 1060 l 29
0 1050.34 m 29
 5 1051 l 29
 5 0 l 29
 0 0 l 29
 0 1050.34 l 29
EndSplineSet
EndChar

StartChar: NameMe.107
Encoding: 65539 -1 104
Width: 2048
VWidth: 0
LayerCount: 2
Back
SplineSet
1050.5 1050.5 m 25
 1055.5 1051.16 l 25
 1055.5 0.15625 l 25
 1050.5 0.15625 l 25
 1050.5 1050.5 l 25
0 1050.34 m 25
 5 1051 l 25
 5 0 l 25
 0 0 l 25
 0 1050.34 l 25
EndSplineSet
EndChar

